<mxfile host="drawio-plugin" modified="2023-07-10T13:50:43.469Z" agent="5.0 (Windows NT 6.2; Win64; x64) AppleWebKit/537.36 (KHTML, like Gecko) Chrome/104.0.5112.102 Safari/537.36" etag="fDY8n89rMaz47ldkS6pI" version="20.5.3" type="embed"><diagram name="Página-1" id="2lp4uydA60VJKY2f_2jK"><mxGraphModel dx="898" dy="693" grid="1" gridSize="10" guides="1" tooltips="1" connect="1" arrows="1" fold="1" page="1" pageScale="1" pageWidth="827" pageHeight="1169" background="none" math="0" shadow="0"><root><mxCell id="0"/><mxCell id="1" parent="0"/><mxCell id="lonjhoGg8wPurpXXjPY--60" value="" style="rounded=0;whiteSpace=wrap;html=1;fillColor=#efffcc;strokeColor=#528a3c;shadow=0;glass=0;" parent="1" vertex="1"><mxGeometry x="80" y="760" width="700" height="920" as="geometry"/></mxCell><mxCell id="lonjhoGg8wPurpXXjPY--8" value="" style="rounded=0;whiteSpace=wrap;html=1;fillColor=#fad7ac;strokeColor=#b46504;shadow=0;glass=0;" parent="1" vertex="1"><mxGeometry x="80" y="610" width="700" height="120" as="geometry"/></mxCell><mxCell id="lonjhoGg8wPurpXXjPY--9" value="Game" style="text;html=1;strokeColor=none;fillColor=none;align=center;verticalAlign=middle;whiteSpace=wrap;rounded=0;fontSize=14;fontStyle=1;shadow=0;glass=0;" parent="1" vertex="1"><mxGeometry x="90" y="620" width="680" height="30" as="geometry"/></mxCell><mxCell id="alcw4WebK94FmhoN8eKG-5" value="Operating Sysytem" style="rounded=0;whiteSpace=wrap;html=1;gradientColor=none;fillColor=#bfbfbf;strokeColor=#666666;fontStyle=1;fontSize=14;shadow=0;glass=0;" parent="1" vertex="1"><mxGeometry x="80" y="1700" width="700" height="50" as="geometry"/></mxCell><mxCell id="alcw4WebK94FmhoN8eKG-6" value="Drivers" style="rounded=0;whiteSpace=wrap;html=1;gradientColor=none;fillColor=#9E9E9E;fontStyle=1;fontSize=14;shadow=0;glass=0;" parent="1" vertex="1"><mxGeometry x="80" y="1750" width="700" height="50" as="geometry"/></mxCell><mxCell id="alcw4WebK94FmhoN8eKG-7" value="Hardware" style="rounded=0;whiteSpace=wrap;html=1;gradientColor=none;fillColor=#828282;fontStyle=1;fontSize=14;shadow=0;glass=0;" parent="1" vertex="1"><mxGeometry x="80" y="1800" width="700" height="50" as="geometry"/></mxCell><mxCell id="lonjhoGg8wPurpXXjPY--61" value="GLESC" style="text;html=1;strokeColor=none;fillColor=none;align=center;verticalAlign=middle;whiteSpace=wrap;rounded=0;fontStyle=1;fontSize=14;shadow=0;glass=0;" parent="1" vertex="1"><mxGeometry x="80" y="760" width="70" height="30" as="geometry"/></mxCell><mxCell id="alcw4WebK94FmhoN8eKG-15" value="" style="rounded=0;whiteSpace=wrap;html=1;fillColor=#6dc766;strokeColor=#477944;shadow=0;glass=0;" parent="1" vertex="1"><mxGeometry x="120" y="990" width="620" height="180" as="geometry"/></mxCell><mxCell id="alcw4WebK94FmhoN8eKG-17" value="Core" style="text;html=1;strokeColor=none;fillColor=none;align=center;verticalAlign=middle;whiteSpace=wrap;rounded=0;fontStyle=1;fontSize=14;shadow=0;glass=0;" parent="1" vertex="1"><mxGeometry x="130" y="990" width="60" height="30" as="geometry"/></mxCell><mxCell id="lonjhoGg8wPurpXXjPY--44" value="" style="group;fontSize=12;fillColor=#cdeb8b;strokeColor=default;shadow=0;glass=0;rounded=0;" parent="1" vertex="1" connectable="0"><mxGeometry x="150" y="1030" width="190" height="120" as="geometry"/></mxCell><mxCell id="lonjhoGg8wPurpXXjPY--35" value="" style="rounded=0;whiteSpace=wrap;html=1;fillColor=#cdeb8b;strokeColor=#5A7D10;shadow=0;glass=0;" parent="lonjhoGg8wPurpXXjPY--44" vertex="1"><mxGeometry width="190" height="120" as="geometry"/></mxCell><mxCell id="lonjhoGg8wPurpXXjPY--41" value="&lt;font style=&quot;font-size: 10px;&quot;&gt;Render Engine&lt;/font&gt;" style="text;html=1;strokeColor=none;fillColor=none;align=center;verticalAlign=middle;whiteSpace=wrap;rounded=0;fontSize=9;fontStyle=1;shadow=0;glass=0;" parent="lonjhoGg8wPurpXXjPY--44" vertex="1"><mxGeometry width="190" height="30" as="geometry"/></mxCell><mxCell id="alcw4WebK94FmhoN8eKG-11" value="Mesh" style="rounded=0;whiteSpace=wrap;html=1;fillColor=#E9FFAB;strokeColor=#8EA163;shadow=0;glass=0;" parent="lonjhoGg8wPurpXXjPY--44" vertex="1"><mxGeometry x="20" y="30" width="70" height="30" as="geometry"/></mxCell><mxCell id="alcw4WebK94FmhoN8eKG-12" value="Particles" style="rounded=0;whiteSpace=wrap;html=1;fillColor=#E9FFAB;strokeColor=#8EA163;shadow=0;glass=0;" parent="lonjhoGg8wPurpXXjPY--44" vertex="1"><mxGeometry x="100" y="30" width="70" height="30" as="geometry"/></mxCell><mxCell id="j-1yReXvPn5osgzlhJqz-11" value="Graphics Device Interface" style="rounded=0;whiteSpace=wrap;html=1;fillColor=#E9FFAB;strokeColor=#8EA163;shadow=0;glass=0;" parent="lonjhoGg8wPurpXXjPY--44" vertex="1"><mxGeometry x="20" y="70" width="150" height="30" as="geometry"/></mxCell><mxCell id="lonjhoGg8wPurpXXjPY--43" value="" style="group;fontSize=12;shadow=0;glass=0;rounded=0;" parent="1" vertex="1" connectable="0"><mxGeometry x="350" y="1030" width="170" height="120" as="geometry"/></mxCell><mxCell id="lonjhoGg8wPurpXXjPY--36" value="" style="rounded=0;whiteSpace=wrap;html=1;fillColor=#D2ACE2;strokeColor=#9D79A9;shadow=0;glass=0;" parent="lonjhoGg8wPurpXXjPY--43" vertex="1"><mxGeometry width="170" height="120" as="geometry"/></mxCell><mxCell id="lonjhoGg8wPurpXXjPY--40" value="&lt;font style=&quot;font-size: 10px;&quot;&gt;Physics Engine&lt;/font&gt;" style="text;html=1;strokeColor=none;fillColor=none;align=center;verticalAlign=middle;whiteSpace=wrap;rounded=0;fontSize=9;fontStyle=1;shadow=0;glass=0;" parent="lonjhoGg8wPurpXXjPY--43" vertex="1"><mxGeometry width="170" height="30" as="geometry"/></mxCell><mxCell id="alcw4WebK94FmhoN8eKG-13" value="RigidBody" style="rounded=0;whiteSpace=wrap;html=1;fillColor=#f4d6ff;strokeColor=#9D79A9;shadow=0;glass=0;" parent="lonjhoGg8wPurpXXjPY--43" vertex="1"><mxGeometry x="10" y="70" width="70" height="30" as="geometry"/></mxCell><mxCell id="alcw4WebK94FmhoN8eKG-14" value="Static" style="rounded=0;whiteSpace=wrap;html=1;fillColor=#f4d6ff;strokeColor=#9D79A9;shadow=0;glass=0;" parent="lonjhoGg8wPurpXXjPY--43" vertex="1"><mxGeometry x="90" y="70" width="70" height="30" as="geometry"/></mxCell><mxCell id="lonjhoGg8wPurpXXjPY--42" value="" style="group;fontSize=12;shadow=0;glass=0;rounded=0;" parent="1" vertex="1" connectable="0"><mxGeometry x="530" y="1030" width="80" height="120" as="geometry"/></mxCell><mxCell id="lonjhoGg8wPurpXXjPY--37" value="" style="rounded=0;whiteSpace=wrap;html=1;fillColor=#FFF899;strokeColor=#d6b656;gradientColor=none;shadow=0;glass=0;" parent="lonjhoGg8wPurpXXjPY--42" vertex="1"><mxGeometry width="80" height="120" as="geometry"/></mxCell><mxCell id="lonjhoGg8wPurpXXjPY--39" value="&lt;b&gt;&lt;font style=&quot;font-size: 10px;&quot;&gt;Input Manager&lt;/font&gt;&lt;/b&gt;" style="text;html=1;strokeColor=none;fillColor=none;align=center;verticalAlign=middle;whiteSpace=wrap;rounded=0;fontSize=9;shadow=0;glass=0;" parent="lonjhoGg8wPurpXXjPY--42" vertex="1"><mxGeometry width="80" height="30" as="geometry"/></mxCell><mxCell id="lonjhoGg8wPurpXXjPY--7" value="" style="rounded=0;whiteSpace=wrap;html=1;strokeColor=#528a3c;fillColor=#93ff6b;strokeWidth=1;shadow=0;glass=0;" parent="1" vertex="1"><mxGeometry x="120" y="820" width="620" height="150" as="geometry"/></mxCell><mxCell id="alcw4WebK94FmhoN8eKG-20" value="" style="group;shadow=0;glass=0;rounded=0;" parent="1" vertex="1" connectable="0"><mxGeometry x="350" y="850" width="170" height="40" as="geometry"/></mxCell><mxCell id="lonjhoGg8wPurpXXjPY--5" value="" style="rounded=0;whiteSpace=wrap;html=1;fillColor=#85d587;strokeColor=#5b7586;gradientColor=none;shadow=0;glass=0;" parent="alcw4WebK94FmhoN8eKG-20" vertex="1"><mxGeometry width="170" height="40" as="geometry"/></mxCell><mxCell id="lonjhoGg8wPurpXXjPY--18" value="Entities" style="text;html=1;strokeColor=none;fillColor=none;align=center;verticalAlign=middle;whiteSpace=wrap;rounded=0;fontSize=10;shadow=0;glass=0;" parent="alcw4WebK94FmhoN8eKG-20" vertex="1"><mxGeometry width="170" height="20" as="geometry"/></mxCell><mxCell id="lonjhoGg8wPurpXXjPY--6" value="ECS" style="text;html=1;strokeColor=none;fillColor=none;align=center;verticalAlign=middle;whiteSpace=wrap;rounded=0;fontStyle=1;fontSize=14;shadow=0;glass=0;" parent="1" vertex="1"><mxGeometry x="120" y="820" width="60" height="30" as="geometry"/></mxCell><mxCell id="lonjhoGg8wPurpXXjPY--12" value="" style="rounded=0;whiteSpace=wrap;html=1;perimeterSpacing=0;fillColor=#fad7ac;gradientColor=#93ff6b;strokeColor=none;strokeWidth=0;shadow=0;glass=0;" parent="1" vertex="1"><mxGeometry x="510" y="720" width="230" height="110" as="geometry"/></mxCell><mxCell id="lonjhoGg8wPurpXXjPY--64" value="" style="rounded=0;whiteSpace=wrap;html=1;rotation=90;fillColor=#c6ffc8;gradientColor=#fad7ac;gradientDirection=north;strokeColor=#528a3c;shadow=0;glass=0;" parent="1" vertex="1"><mxGeometry x="410" y="830" width="40" height="200" as="geometry"/></mxCell><mxCell id="lonjhoGg8wPurpXXjPY--45" value="" style="group;strokeColor=none;shadow=0;glass=0;rounded=0;" parent="1" vertex="1" connectable="0"><mxGeometry x="140" y="850" width="200" height="100" as="geometry"/></mxCell><mxCell id="lonjhoGg8wPurpXXjPY--48" value="" style="group;shadow=0;glass=0;rounded=0;" parent="lonjhoGg8wPurpXXjPY--45" vertex="1" connectable="0"><mxGeometry width="200" height="100" as="geometry"/></mxCell><mxCell id="lonjhoGg8wPurpXXjPY--4" value="" style="rounded=0;whiteSpace=wrap;html=1;fillColor=#c7ffc8;strokeColor=#518b3c;shadow=0;glass=0;" parent="lonjhoGg8wPurpXXjPY--48" vertex="1"><mxGeometry width="200" height="100" as="geometry"/></mxCell><mxCell id="lonjhoGg8wPurpXXjPY--11" value="Core Systems" style="text;html=1;strokeColor=none;fillColor=none;align=center;verticalAlign=middle;whiteSpace=wrap;rounded=0;fontSize=10;shadow=0;glass=0;" parent="lonjhoGg8wPurpXXjPY--48" vertex="1"><mxGeometry width="200" height="50" as="geometry"/></mxCell><mxCell id="alcw4WebK94FmhoN8eKG-23" value="" style="group;shadow=0;glass=0;rounded=0;" parent="1" vertex="1" connectable="0"><mxGeometry x="530" y="850" width="190" height="100" as="geometry"/></mxCell><mxCell id="lonjhoGg8wPurpXXjPY--13" value="" style="rounded=0;whiteSpace=wrap;html=1;fillColor=#FAD7AC;gradientColor=#fad7ac;gradientDirection=north;strokeColor=#b46505;shadow=0;glass=0;" parent="alcw4WebK94FmhoN8eKG-23" vertex="1"><mxGeometry width="190" height="100" as="geometry"/></mxCell><mxCell id="lonjhoGg8wPurpXXjPY--19" value="Custom Systems" style="text;html=1;strokeColor=none;fillColor=none;align=center;verticalAlign=middle;whiteSpace=wrap;rounded=0;fontSize=10;shadow=0;glass=0;" parent="alcw4WebK94FmhoN8eKG-23" vertex="1"><mxGeometry width="190" height="50" as="geometry"/></mxCell><mxCell id="lonjhoGg8wPurpXXjPY--22" value="" style="rounded=0;whiteSpace=wrap;html=1;fillColor=#c3ffc2;strokeColor=#6489A0;shadow=0;glass=0;" parent="1" vertex="1"><mxGeometry x="360" y="880" width="30" height="50" as="geometry"/></mxCell><mxCell id="alcw4WebK94FmhoN8eKG-30" value="" style="rounded=0;whiteSpace=wrap;html=1;fillColor=#c3ffc2;strokeColor=#6489A0;shadow=0;glass=0;" parent="1" vertex="1"><mxGeometry x="400" y="880" width="30" height="50" as="geometry"/></mxCell><mxCell id="alcw4WebK94FmhoN8eKG-31" value="" style="rounded=0;whiteSpace=wrap;html=1;fillColor=#fad7ac;strokeColor=#b36e0f;shadow=0;glass=0;" parent="1" vertex="1"><mxGeometry x="480" y="880" width="30" height="50" as="geometry"/></mxCell><mxCell id="alcw4WebK94FmhoN8eKG-32" value="" style="rounded=0;whiteSpace=wrap;html=1;fillColor=#fad7ac;strokeColor=#b36e0f;shadow=0;glass=0;" parent="1" vertex="1"><mxGeometry x="440" y="880" width="30" height="50" as="geometry"/></mxCell><mxCell id="alcw4WebK94FmhoN8eKG-33" value="" style="rounded=0;whiteSpace=wrap;html=1;strokeColor=none;fillColor=#fad7ac;shadow=0;glass=0;" parent="1" vertex="1"><mxGeometry x="522" y="910.5" width="10" height="39" as="geometry"/></mxCell><mxCell id="alcw4WebK94FmhoN8eKG-34" value="" style="rounded=0;whiteSpace=wrap;html=1;strokeColor=none;fillColor=#c6ffc8;shadow=0;glass=0;" parent="1" vertex="1"><mxGeometry x="335" y="910.5" width="10" height="39" as="geometry"/></mxCell><mxCell id="alcw4WebK94FmhoN8eKG-28" value="Custom Components" style="text;strokeColor=none;fillColor=none;align=center;verticalAlign=middle;rounded=0;fontSize=10;labelBackgroundColor=#fad7ac;labelBorderColor=none;shadow=0;glass=0;whiteSpace=wrap;html=1;" parent="1" vertex="1"><mxGeometry x="440" y="880" width="70" height="40" as="geometry"/></mxCell><mxCell id="lonjhoGg8wPurpXXjPY--52" value="Core Components" style="text;html=1;strokeColor=none;fillColor=none;align=center;verticalAlign=middle;whiteSpace=wrap;rounded=0;fontSize=10;rotation=0;labelBorderColor=none;labelBackgroundColor=#c2ffc2;shadow=0;glass=0;" parent="1" vertex="1"><mxGeometry x="360" y="880" width="70" height="40" as="geometry"/></mxCell><mxCell id="alcw4WebK94FmhoN8eKG-10" value="Resources (Assets)" style="rounded=0;whiteSpace=wrap;html=1;fontSize=14;fontStyle=1;fillColor=#72a773;strokeColor=#456346;gradientColor=none;shadow=0;glass=0;" parent="1" vertex="1"><mxGeometry x="120" y="1190" width="620" height="50" as="geometry"/></mxCell><mxCell id="j-1yReXvPn5osgzlhJqz-2" value="" style="rounded=0;whiteSpace=wrap;html=1;fontSize=14;fontStyle=1;fillColor=#4E734F;strokeColor=#253626;gradientColor=none;shadow=0;glass=0;fontColor=#ffffff;" parent="1" vertex="1"><mxGeometry x="120" y="1270" width="620" height="140" as="geometry"/></mxCell><mxCell id="j-1yReXvPn5osgzlhJqz-9" value="" style="group" parent="1" vertex="1" connectable="0"><mxGeometry x="620" y="1030" width="90" height="120" as="geometry"/></mxCell><mxCell id="lonjhoGg8wPurpXXjPY--58" value="" style="rounded=0;whiteSpace=wrap;html=1;fillColor=#F88C88;strokeColor=#b85450;shadow=0;glass=0;" parent="j-1yReXvPn5osgzlhJqz-9" vertex="1"><mxGeometry width="90" height="120" as="geometry"/></mxCell><mxCell id="lonjhoGg8wPurpXXjPY--59" value="&lt;font style=&quot;font-size: 10px;&quot;&gt;In-Game Debugging &amp;amp; Profiling&lt;/font&gt;" style="text;html=1;strokeColor=none;fillColor=none;align=center;verticalAlign=middle;whiteSpace=wrap;rounded=0;fontSize=9;fontStyle=1;shadow=0;glass=0;" parent="j-1yReXvPn5osgzlhJqz-9" vertex="1"><mxGeometry width="90" height="40" as="geometry"/></mxCell><mxCell id="j-1yReXvPn5osgzlhJqz-3" value="&lt;font style=&quot;font-size: 11px;&quot;&gt;In-Game&lt;br&gt;Console&lt;/font&gt;" style="rounded=0;whiteSpace=wrap;html=1;fillColor=#f8cecc;strokeColor=#b85450;" parent="j-1yReXvPn5osgzlhJqz-9" vertex="1"><mxGeometry x="10" y="80" width="70" height="30" as="geometry"/></mxCell><mxCell id="j-1yReXvPn5osgzlhJqz-5" value="&lt;font style=&quot;font-size: 11px;&quot;&gt;In-Game Stats&lt;/font&gt;" style="rounded=0;whiteSpace=wrap;html=1;fillColor=#f8cecc;strokeColor=#b85450;" parent="j-1yReXvPn5osgzlhJqz-9" vertex="1"><mxGeometry x="5.625" y="40" width="78.75" height="30" as="geometry"/></mxCell><mxCell id="j-1yReXvPn5osgzlhJqz-12" value="&lt;b&gt;&lt;font color=&quot;#ffffff&quot; style=&quot;font-size: 14px;&quot;&gt;Foundation Layer&lt;/font&gt;&lt;/b&gt;" style="text;html=1;strokeColor=none;fillColor=none;align=center;verticalAlign=middle;whiteSpace=wrap;rounded=0;" parent="1" vertex="1"><mxGeometry x="120" y="1270" width="620" height="30" as="geometry"/></mxCell><mxCell id="j-1yReXvPn5osgzlhJqz-14" value="Asserts" style="rounded=0;whiteSpace=wrap;html=1;fillColor=#6bae6c;fontColor=#ffffff;fontSize=13;" parent="1" vertex="1"><mxGeometry x="255" y="1310" width="170" height="40" as="geometry"/></mxCell><mxCell id="j-1yReXvPn5osgzlhJqz-15" value="Data Structures" style="rounded=0;whiteSpace=wrap;html=1;fillColor=#6bae6c;fontColor=#ffffff;fontSize=13;" parent="1" vertex="1"><mxGeometry x="590" y="1360" width="125" height="40" as="geometry"/></mxCell><mxCell id="j-1yReXvPn5osgzlhJqz-16" value="Exceptions" style="rounded=0;whiteSpace=wrap;html=1;fillColor=#6bae6c;fontColor=#ffffff;fontSize=13;" parent="1" vertex="1"><mxGeometry x="440" y="1310" width="140" height="40" as="geometry"/></mxCell><mxCell id="j-1yReXvPn5osgzlhJqz-17" value="Logger" style="rounded=0;whiteSpace=wrap;html=1;fillColor=#6bae6c;fontColor=#ffffff;fontSize=13;" parent="1" vertex="1"><mxGeometry x="590" y="1310" width="130" height="40" as="geometry"/></mxCell><mxCell id="alcw4WebK94FmhoN8eKG-9" value="" style="group;shadow=0;glass=0;rounded=0;" parent="1" vertex="1" connectable="0"><mxGeometry x="120" y="1500" width="620" height="90" as="geometry"/></mxCell><mxCell id="alcw4WebK94FmhoN8eKG-1" value="" style="rounded=0;whiteSpace=wrap;html=1;fillColor=#F2F2F2;strokeColor=#666666;gradientColor=none;shadow=0;glass=0;" parent="alcw4WebK94FmhoN8eKG-9" vertex="1"><mxGeometry x="0.0014519906323188572" width="620" height="90" as="geometry"/></mxCell><mxCell id="2" value="&lt;b style=&quot;border-color: var(--border-color); font-size: 14px;&quot;&gt;Platform Independence Layer&lt;/b&gt;" style="text;html=1;strokeColor=none;fillColor=none;align=center;verticalAlign=middle;whiteSpace=wrap;rounded=0;" vertex="1" parent="alcw4WebK94FmhoN8eKG-9"><mxGeometry width="620" height="30" as="geometry"/></mxCell><mxCell id="3" value="Platform Detection" style="rounded=0;whiteSpace=wrap;html=1;" vertex="1" parent="alcw4WebK94FmhoN8eKG-9"><mxGeometry x="20" y="30" width="120" height="35" as="geometry"/></mxCell><mxCell id="5" value="File Systems" style="rounded=0;whiteSpace=wrap;html=1;" vertex="1" parent="alcw4WebK94FmhoN8eKG-9"><mxGeometry x="160" y="30" width="120" height="35" as="geometry"/></mxCell><mxCell id="6" value="FPS" style="rounded=0;whiteSpace=wrap;html=1;" vertex="1" parent="alcw4WebK94FmhoN8eKG-9"><mxGeometry x="320" y="30" width="90" height="35" as="geometry"/></mxCell><mxCell id="7" value="Graphic Device Interface Abstraction" style="rounded=0;whiteSpace=wrap;html=1;" vertex="1" parent="alcw4WebK94FmhoN8eKG-9"><mxGeometry x="450" y="30" width="120" height="35" as="geometry"/></mxCell><mxCell id="alcw4WebK94FmhoN8eKG-3" value="&lt;b style=&quot;border-color: var(--border-color); font-size: 14px;&quot;&gt;3rd Party SDKs&lt;/b&gt;" style="rounded=0;whiteSpace=wrap;html=1;fillColor=#D1D1D1;strokeColor=#666666;gradientColor=none;shadow=0;glass=0;" parent="1" vertex="1"><mxGeometry x="120" y="1610" width="620" height="50" as="geometry"/></mxCell><mxCell id="11" value="Module Start-Up &amp;amp; Shut-Down" style="rounded=0;whiteSpace=wrap;html=1;fillColor=#6bae6c;fontColor=#ffffff;fontSize=13;" vertex="1" parent="1"><mxGeometry x="255" y="1360" width="170" height="40" as="geometry"/></mxCell></root></mxGraphModel></diagram></mxfile>